<svg width="24" height="24" viewBox="0 0 24 24" fill="none" xmlns="http://www.w3.org/2000/svg">
<path d="M13.483 17.8342L14.9585 16.3587C15.0745 16.2432 15.2122 16.1517 15.3637 16.0895C15.5151 16.0274 15.6774 15.9957 15.8411 15.9963C15.9313 15.9963 16.0213 16.0058 16.1095 16.0246C16.8764 16.1874 17.6582 16.2694 18.4422 16.2693C18.5322 16.2693 18.6222 16.2682 18.7121 16.2661C18.7223 16.2658 18.7323 16.2657 18.7423 16.2657C19.0717 16.2666 19.3872 16.3982 19.6195 16.6316C19.8519 16.865 19.9822 17.1811 19.9817 17.5104V21.2499C19.981 21.5781 19.8513 21.8929 19.6205 22.1263C19.3898 22.3597 19.0766 22.493 18.7484 22.4976C18.6491 22.4992 18.5501 22.5001 18.4507 22.5001C16.423 22.5005 14.4106 22.1488 12.5033 21.4606C10.0987 20.5909 7.91576 19.201 6.11039 17.3901C4.45235 15.7357 3.14535 13.7636 2.26773 11.592C1.3901 9.42036 0.959908 7.09391 1.00294 4.75205C1.00746 4.42389 1.1408 4.11067 1.37421 3.87995C1.60762 3.64923 1.92237 3.51952 2.25056 3.5188H5.9906C6.15606 3.51844 6.31994 3.55113 6.47258 3.61498C6.62523 3.67883 6.76358 3.77254 6.87951 3.89061C6.99544 4.00867 7.0866 4.14871 7.14766 4.3025C7.20871 4.45629 7.23841 4.62072 7.23503 4.78615C7.21353 5.67869 7.2984 6.57061 7.48782 7.44308C7.53374 7.64826 7.52732 7.86171 7.46915 8.06376C7.41097 8.26582 7.30292 8.45 7.15492 8.59935L5.68573 10.0686" stroke="#00CA9D" stroke-width="2"/>
<path d="M8 11.5L12 15.5" stroke="#00CA9D" stroke-width="2"/>
<path d="M15.5 8.5L20 4M11.5 7L13 1L11.5 7Z" stroke="#00CA9D" stroke-width="2"/>
<path d="M17 12.4006L23.1662 11.9226" stroke="#00CA9D" stroke-width="2"/>
</svg>
