<svg width="42" height="35" viewBox="0 0 42 35" fill="none" xmlns="http://www.w3.org/2000/svg">
<path d="M9.61046 0.494141C8.53304 0.494141 7.58701 1.08919 6.96217 1.91924C6.50157 2.53113 6.20244 3.28276 6.06997 4.10628H3.71909C2.22839 4.10628 1 5.33016 1 6.81539V25.7791C1 27.2644 2.22839 28.4882 3.71909 28.4882H25.5993C26.248 32.0707 29.3984 34.8095 33.1759 34.8095C37.42 34.8095 40.88 31.3622 40.88 27.1337C40.88 23.3701 38.1311 20.2312 34.5355 19.5849V6.81539C34.5355 5.33017 33.3071 4.10628 31.8164 4.10628H29.4655C29.3266 3.23084 28.998 2.43734 28.4883 1.80636C27.8677 1.03805 26.9526 0.494141 25.925 0.494141C24.8476 0.494141 23.9016 1.08919 23.2767 1.91924C22.8161 2.53113 22.517 3.28276 22.3845 4.10628H13.1509C13.0121 3.23084 12.6835 2.43734 12.1738 1.80636C11.5531 1.03805 10.6381 0.494141 9.61046 0.494141ZM9.61046 2.30021C10.0151 2.30021 10.407 2.50117 10.7576 2.93516C10.9977 3.2324 11.1918 3.63916 11.3099 4.10628H7.91102C8.0171 3.67043 8.18912 3.28063 8.40669 2.9916C8.76598 2.51431 9.18615 2.30021 9.61046 2.30021ZM25.925 2.30021C26.3297 2.30021 26.7215 2.50117 27.0721 2.93516C27.3122 3.2324 27.5064 3.63916 27.6244 4.10628H24.2256C24.3317 3.67043 24.5037 3.28063 24.7212 2.9916C25.0805 2.51431 25.5007 2.30021 25.925 2.30021ZM3.71909 5.91235H6.06997C6.20244 6.73588 6.50157 7.48751 6.96217 8.09939C7.58701 8.92945 8.53304 9.5245 9.61046 9.5245C9.73056 9.52619 9.84981 9.50408 9.96126 9.45946C10.0727 9.41484 10.1742 9.34859 10.2597 9.26457C10.3452 9.18055 10.4131 9.08043 10.4595 8.97002C10.5059 8.85962 10.5297 8.74114 10.5297 8.62146C10.5297 8.50179 10.5059 8.3833 10.4595 8.2729C10.4131 8.1625 10.3452 8.06238 10.2597 7.97835C10.1742 7.89433 10.0727 7.82808 9.96126 7.78346C9.84981 7.73884 9.73056 7.71673 9.61046 7.71843C9.18615 7.71843 8.76598 7.50433 8.40669 7.02704C8.18912 6.73801 8.0171 6.34821 7.91102 5.91235H22.3845C22.517 6.73588 22.8161 7.48751 23.2767 8.09939C23.9016 8.92945 24.8476 9.5245 25.925 9.5245C26.0451 9.52619 26.1644 9.50408 26.2758 9.45946C26.3873 9.41484 26.4887 9.34859 26.5742 9.26457C26.6598 9.18055 26.7277 9.08043 26.7741 8.97002C26.8204 8.85962 26.8443 8.74114 26.8443 8.62146C26.8443 8.50179 26.8204 8.3833 26.7741 8.2729C26.7277 8.1625 26.6598 8.06238 26.5742 7.97835C26.4887 7.89433 26.3873 7.82808 26.2758 7.78346C26.1644 7.73884 26.0451 7.71673 25.925 7.71843C25.5007 7.71843 25.0805 7.50433 24.7212 7.02704C24.5037 6.73801 24.3317 6.34821 24.2256 5.91235H31.8164C32.3342 5.91235 32.7227 6.29949 32.7227 6.81539V10.8791H2.81273V6.81539C2.81273 6.29949 3.20129 5.91235 3.71909 5.91235ZM2.81273 12.6851H32.7227V19.4861C28.8435 19.7155 25.7304 22.8171 25.5001 26.6822H3.71909C3.20129 26.6822 2.81273 26.295 2.81273 25.7791V12.6851ZM33.1759 21.264C36.4404 21.264 39.0673 23.8812 39.0673 27.1337C39.0673 30.3862 36.4404 33.0034 33.1759 33.0034C29.9115 33.0034 27.2846 30.3862 27.2846 27.1337C27.2846 23.8812 29.9115 21.264 33.1759 21.264ZM33.0768 23.0559C32.8515 23.0806 32.6437 23.1884 32.4943 23.3582C32.3449 23.528 32.2647 23.7473 32.2696 23.9731V26.2307H30.0036C29.9753 26.2293 29.947 26.2293 29.9187 26.2307C29.7996 26.2362 29.6828 26.265 29.575 26.3155C29.4671 26.3661 29.3703 26.4372 29.2901 26.525C29.2099 26.6128 29.1478 26.7155 29.1074 26.8272C29.067 26.9389 29.049 27.0574 29.0546 27.176C29.0602 27.2946 29.0892 27.411 29.1399 27.5184C29.1906 27.6259 29.2621 27.7223 29.3502 27.8022C29.4383 27.8822 29.5414 27.944 29.6535 27.9842C29.7656 28.0245 29.8846 28.0423 30.0036 28.0367H32.2696V30.2943C32.2679 30.414 32.29 30.5328 32.3348 30.6438C32.3796 30.7549 32.4461 30.8559 32.5304 30.9412C32.6148 31.0264 32.7153 31.0941 32.8261 31.1402C32.9369 31.1864 33.0558 31.2102 33.1759 31.2102C33.296 31.2102 33.415 31.1864 33.5258 31.1402C33.6366 31.0941 33.7371 31.0264 33.8214 30.9412C33.9057 30.8559 33.9722 30.7549 34.017 30.6438C34.0618 30.5328 34.084 30.414 34.0823 30.2943V28.0367H36.3482C36.4683 28.0384 36.5875 28.0163 36.699 27.9717C36.8105 27.9271 36.9119 27.8608 36.9974 27.7768C37.083 27.6928 37.1509 27.5927 37.1972 27.4823C37.2436 27.3719 37.2675 27.2534 37.2675 27.1337C37.2675 27.014 37.2436 26.8955 37.1972 26.7851C37.1509 26.6747 37.083 26.5746 36.9974 26.4906C36.9119 26.4066 36.8105 26.3403 36.699 26.2957C36.5875 26.2511 36.4683 26.229 36.3482 26.2307H34.0823V23.9731C34.0842 23.8521 34.0617 23.732 34.0161 23.6199C33.9705 23.5077 33.9028 23.4059 33.8169 23.3203C33.731 23.2348 33.6288 23.1673 33.5163 23.1219C33.4037 23.0765 33.2832 23.054 33.1618 23.0559C33.1334 23.0546 33.1051 23.0546 33.0768 23.0559Z" fill="#00CA9D" stroke="white" stroke-width="0.3"/>
</svg>
