<svg width="59" height="33" viewBox="0 0 59 33" fill="none" xmlns="http://www.w3.org/2000/svg">
<path d="M59 31.9939C59 31.5434 58.6348 31.1782 58.1843 31.1782L52.3433 31.179V13.278L55.0202 14.7705C55.4135 14.9898 55.91 14.8488 56.1294 14.4556C56.3489 14.0622 56.2079 13.5654 55.8145 13.346L32.7649 0.491211L23.7918 5.49524V2.62667H18.0822V8.68022L9.71542 13.3461C9.32202 13.5655 9.181 14.0623 9.40047 14.4556C9.61987 14.8488 10.1164 14.9898 10.5097 14.7705L13.1866 13.278V31.179H5.02993V25.4588C7.15325 25.3674 8.83798 24.512 8.83798 19.5905C8.83798 15.7525 7.56674 6.36998 4.41818 6.36998C1.27124 6.36998 0 15.6247 0 19.4627C0 21.9453 0.384365 23.5362 1.24615 24.3931C1.86357 25.0065 2.63553 25.2864 3.3986 25.3997V31.1781H0.950802C0.500321 31.1781 0.135135 31.5433 0.135135 31.9938C0.135135 32.4443 0.500321 32.8095 0.950801 32.8095H13.1866H18.897H31.9493H52.3433H58.1844C58.6348 32.8095 59 32.4443 59 31.9939ZM3.3986 23.7465C2.96407 23.6551 2.63149 23.4957 2.39601 23.261C1.88946 22.7577 1.63214 21.3441 1.63214 19.4117C1.63214 13.5184 3.5483 8.05229 4.41899 8.05229C5.28968 8.05229 7.20746 13.6705 7.20746 19.5646C7.20746 23.2489 6.43792 23.7619 5.03074 23.8258V21.389C5.03074 20.9383 4.66537 20.5729 4.21467 20.5729C3.76397 20.5729 3.3986 20.9383 3.3986 21.389V23.7465ZM19.7135 4.2588H22.1605V6.40558L19.7135 7.77069V4.2588ZM30.3179 31.1781H20.5292V23.2303C20.5292 20.5276 22.7245 18.3298 25.4232 18.3298C28.1218 18.3298 30.3179 20.5276 30.3179 23.2303V31.1781ZM50.712 31.1781H31.9493V23.2303C31.9493 19.6286 29.0216 16.6993 25.4232 16.6993C21.8247 16.6993 18.897 19.6286 18.897 23.2303V31.1781H14.8179V12.3685L16.5358 11.4104L22.1605 8.27401L32.7649 2.35963L50.712 12.3685V31.1781Z" fill="#00CA9D"/>
<path d="M46.6323 20.5736V16.4945H34.3965V20.5736V26.2841H46.6323V20.5736ZM45.0009 24.652H36.0278V20.5736H45.0009V24.652ZM45.0009 18.9415H36.0278V18.1258H45.0009V18.9415Z" fill="#00CA9D"/>
</svg>
