<svg width="40" height="39" viewBox="0 0 40 39" fill="none" xmlns="http://www.w3.org/2000/svg">
<path d="M37.5636 16.4994H35.086C33.3916 12.4304 30.0588 9.15264 25.7591 7.57607C25.6631 6.99229 25.3954 6.45251 24.9684 6.02552L23.1718 4.22894C22.8669 3.92404 22.699 3.51812 22.699 3.0868C22.699 2.65547 22.8669 2.24955 23.1718 1.94465L23.315 1.80149C23.5569 1.55951 23.5569 1.16718 23.315 0.925205C23.073 0.683224 22.6807 0.683224 22.4387 0.925205L22.2955 1.06836C21.7564 1.60752 21.4595 2.32454 21.4595 3.0868C21.4595 3.84905 21.7564 4.56669 22.2955 5.10523L24.0921 6.90181C24.3927 7.20237 24.5656 7.61883 24.5656 8.06627C24.5656 8.28366 24.5205 8.49879 24.4362 8.69731C24.3024 9.01237 24.2884 9.40475 24.5305 9.64678C24.7723 9.88864 25.1716 9.89081 25.3517 9.60006C25.4922 9.37339 25.5991 9.12756 25.6749 8.86943C31.3292 11.1029 35.0847 16.5633 35.0847 22.6967C35.0847 30.8975 28.4122 37.57 20.2114 37.57C12.0106 37.57 5.33806 30.8975 5.33806 22.6967C5.33806 16.9361 8.64259 11.7315 13.8087 9.26782C14.1176 9.12049 14.2645 8.75742 14.13 8.44268C13.9955 8.128 13.6306 7.9809 13.3213 8.12729C9.64717 9.86617 6.84449 12.8863 5.33806 16.5143V16.4994H2.85917C1.83415 16.4994 1 17.3336 1 18.3586V27.0347C1 28.0597 1.83415 28.8939 2.85917 28.8939H5.33992C7.77295 34.7112 13.5221 38.8095 20.2114 38.8095C26.9007 38.8095 32.6498 34.7112 35.0829 28.8939H37.5636C38.5886 28.8939 39.4228 28.0597 39.4228 27.0347V18.3586C39.4228 17.3336 38.5886 16.4994 37.5636 16.4994ZM2.85917 27.6545C2.5177 27.6545 2.23944 27.3768 2.23944 27.0347V18.3586C2.23944 18.0171 2.5177 17.7389 2.85917 17.7389H4.88504C4.37625 19.3142 4.09861 20.9813 4.09861 22.6967C4.09861 24.4263 4.37563 26.0915 4.88256 27.6545H2.85917ZM38.1833 27.0347C38.1833 27.3768 37.9051 27.6545 37.5636 27.6545H35.5402C36.0472 26.0915 36.3242 24.4263 36.3242 22.6967C36.3242 20.98 36.0521 19.3117 35.5439 17.7389H37.5636C37.9051 17.7389 38.1833 18.0171 38.1833 18.3586V27.0347Z" fill="#00CA9D" stroke="#00CA9D" stroke-width="0.2"/>
<path d="M23.6191 19.2887C23.6191 19.6652 23.9243 19.9703 24.3008 19.9703C24.6772 19.9703 24.9824 19.6652 24.9824 19.2887C24.9824 18.9123 24.6772 18.6071 24.3008 18.6071C23.9243 18.6071 23.6191 18.9123 23.6191 19.2887Z" fill="#00CA9D" stroke="#00CA9D" stroke-width="0.2"/>
<path d="M14.0761 13.1542H12.0312V13.8358C12.0312 16.4668 14.1715 18.6071 16.8025 18.6071H18.8474V17.9255C18.8474 15.2944 16.7071 13.1542 14.0761 13.1542ZM16.8025 17.2439C15.1564 17.2439 13.7796 16.0708 13.4633 14.5174H14.0761C15.7222 14.5174 17.099 15.6905 17.4153 17.2439H16.8025Z" fill="#00CA9D" stroke="#00CA9D" stroke-width="0.2"/>
<path d="M7.94336 26.1049H8.62497C11.256 26.1049 13.3963 23.9639 13.3963 21.3336V19.2887H12.7147C10.0836 19.2887 7.94336 21.4297 7.94336 24.06V26.1049ZM9.30659 24.06C9.30659 22.4139 10.4796 21.0371 12.033 20.7208V21.3336C12.033 22.9797 10.86 24.3565 9.30659 24.6728V24.06Z" fill="#00CA9D" stroke="#00CA9D" stroke-width="0.2"/>
<path d="M13.3954 32.2394C14.5228 32.2394 15.4403 31.322 15.4403 30.1946C15.4403 29.0672 14.5228 28.1497 13.3954 28.1497C12.268 28.1497 11.3506 29.0672 11.3506 30.1946C11.3506 31.322 12.268 32.2394 13.3954 32.2394ZM13.3954 29.513C13.771 29.513 14.077 29.8183 14.077 30.1946C14.077 30.5708 13.771 30.8762 13.3954 30.8762C13.0199 30.8762 12.7138 30.5708 12.7138 30.1946C12.7138 29.8183 13.0199 29.513 13.3954 29.513Z" fill="#00CA9D" stroke="#00CA9D" stroke-width="0.2"/>
<path d="M28.3896 20.6519C28.3896 21.7793 29.3071 22.6968 30.4345 22.6968C31.5619 22.6968 32.4793 21.7793 32.4793 20.6519C32.4793 19.5246 31.5619 18.6071 30.4345 18.6071C29.3071 18.6071 28.3896 19.5246 28.3896 20.6519ZM30.4345 19.9703C30.8101 19.9703 31.1161 20.2757 31.1161 20.6519C31.1161 21.0282 30.8101 21.3336 30.4345 21.3336C30.0589 21.3336 29.7529 21.0282 29.7529 20.6519C29.7529 20.2757 30.0589 19.9703 30.4345 19.9703Z" fill="#00CA9D" stroke="#00CA9D" stroke-width="0.2"/>
<path d="M19.7377 6.90254C20.0432 7.20744 20.2112 7.61336 20.2112 8.067C20.2112 8.28772 20.1672 8.50178 20.0833 8.69906C19.9493 9.01408 19.9339 9.40553 20.1759 9.64767C20.4178 9.88976 20.8175 9.89259 21.002 9.60435C21.294 9.1483 21.4506 8.61444 21.4506 8.04469C21.4506 7.28181 21.1538 6.56479 20.614 6.02625L18.8174 4.22906C18.5168 3.92849 18.3439 3.51204 18.3439 3.08691C18.3439 2.66178 18.5162 2.24533 18.8174 1.94476L18.9604 1.8018C19.2024 1.55974 19.2024 1.16726 18.9602 0.925281C18.7181 0.683334 18.3257 0.683508 18.0838 0.925669L17.9411 1.06847C17.402 1.60763 17.1045 2.32465 17.1045 3.08691C17.1045 3.84917 17.4013 4.56619 17.9411 5.10535L19.7377 6.90254Z" fill="#00CA9D" stroke="#00CA9D" stroke-width="0.2"/>
<path d="M15.391 6.90254C15.6965 7.20744 15.8645 7.61336 15.8645 8.067C15.8645 8.28772 15.8205 8.50178 15.7366 8.69906C15.6027 9.01408 15.5873 9.40553 15.8292 9.64767C16.0711 9.88976 16.4708 9.89259 16.6554 9.60435C16.9473 9.1483 17.1039 8.61444 17.1039 8.04469C17.1039 7.28181 16.8071 6.56479 16.2673 6.02625L14.4707 4.22906C14.1702 3.92849 13.9973 3.51204 13.9973 3.08691C13.9973 2.66178 14.1695 2.24533 14.4707 1.94476L14.6137 1.8018C14.8557 1.55974 14.8557 1.16726 14.6135 0.925281C14.3714 0.683334 13.979 0.683508 13.7371 0.925669L13.5944 1.06847C13.0553 1.60763 12.7578 2.32465 12.7578 3.08691C12.7578 3.84917 13.0547 4.56619 13.5944 5.10535L15.391 6.90254Z" fill="#00CA9D" stroke="#00CA9D" stroke-width="0.2"/>
<path d="M20.0933 14.8149C19.7596 14.9892 19.7611 15.4318 20.0274 15.6979C20.2937 15.9641 20.7413 15.937 21.1157 15.8967C21.4177 15.8643 21.7338 15.9587 21.9554 16.1799C22.286 16.5104 22.3514 17.0217 22.1129 17.4231L22.121 17.4279C21.8763 17.6024 21.6344 17.7817 21.4026 17.9752L18.3258 20.5388C16.9244 21.7078 16.1201 23.4247 16.1201 25.2494V25.426C16.1201 28.8074 18.8711 31.5578 22.2519 31.5578C23.7378 31.5578 25.1713 31.0186 26.2898 30.0405L30.434 26.4143V24.06H28.1908L24.705 26.2787C24.5326 26.3877 24.3342 26.4456 24.1304 26.4456H24.0064C23.4161 26.4456 22.9363 25.9658 22.9363 25.3762C22.9363 25.1267 23.0242 24.8827 23.1844 24.6912L29.7524 16.809V15.199H29.0708C27.1527 15.199 25.2742 15.6727 23.5865 16.5418C23.5115 16.0531 23.2886 15.5855 22.9192 15.2161C22.1814 14.4783 20.994 14.3446 20.0933 14.8149ZM19.199 21.5864L19.2426 21.5503C19.8976 22.6627 20.9228 23.4684 22.1258 23.8344C22.0713 23.9005 22.027 23.9728 21.9799 24.0443C20.6017 24.0089 19.2358 23.7028 17.9687 23.1596C18.2604 22.5618 18.6741 22.024 19.199 21.5864ZM17.4833 25.426V25.2494C17.4833 24.9884 17.5113 24.7321 17.5529 24.4792C18.8288 25.0095 20.1962 25.3251 21.5758 25.4028C21.5778 25.5841 21.6023 25.7593 21.6426 25.9297C20.3802 26.4259 19.0354 26.7128 17.6796 26.7708C17.5536 26.3441 17.4833 25.8935 17.4833 25.426ZM18.3026 28.0952C19.6815 27.9779 21.0427 27.6501 22.3235 27.1259C22.4823 27.2786 22.665 27.4033 22.8599 27.5083C22.4918 28.3548 22.2853 29.2709 22.2642 30.1938C22.2601 30.1938 22.256 30.1945 22.2519 30.1945C20.6106 30.1945 19.1608 29.3609 18.3026 28.0952ZM28.5875 25.4232H29.0708V25.7954L27.0184 27.5914L26.4711 26.7708L28.5875 25.4232ZM25.3151 27.4947L25.9831 28.4966L25.3907 29.0147C24.8789 29.4632 24.2797 29.789 23.639 29.9839C23.6881 29.228 23.8796 28.4816 24.2143 27.8027C24.6021 27.7891 24.977 27.6835 25.3151 27.4947ZM23.1012 22.6606C21.9043 22.4964 20.8635 21.7636 20.3011 20.6676L22.2758 19.0222C23.943 17.6331 26.0008 16.7906 28.1499 16.6025L23.1012 22.6606Z" fill="#00CA9D" stroke="#00CA9D" stroke-width="0.2"/>
</svg>
