<svg width="39" height="39" viewBox="0 0 39 39" fill="none" xmlns="http://www.w3.org/2000/svg">
<path fill-rule="evenodd" clip-rule="evenodd" d="M18.6631 5.22436C17.4754 5.22436 16.3364 4.75257 15.4966 3.91277C14.6568 3.07298 14.185 1.93398 14.185 0.746336V0H24.6338V0.746336C24.6338 1.93398 24.162 3.07298 23.3222 3.91277C22.4825 4.75244 21.3437 5.22422 20.1563 5.22436V10.4487H20.9024C21.1004 10.4487 21.2902 10.5273 21.4302 10.6673C21.5701 10.8073 21.6488 10.9971 21.6488 11.195C21.6488 11.393 21.5701 11.5828 21.4302 11.7228C21.2902 11.8627 21.1004 11.9414 20.9024 11.9414H20.1563V23.8828C20.7984 23.4011 21.5832 23.1364 22.3953 23.1364H24.6343C25.2281 23.1364 25.7976 22.9006 26.2175 22.4807C26.4559 22.2423 26.635 21.9557 26.7452 21.6438H25.3804C25.1825 21.6438 24.9927 21.5651 24.8527 21.4252C24.7127 21.2852 24.6341 21.0954 24.6341 20.8974C24.6341 20.6995 24.7127 20.5097 24.8527 20.3697C24.9927 20.2297 25.1825 20.1511 25.3804 20.1511H26.8729V19.2682C26.3222 19.0976 25.8232 18.7792 25.4339 18.3412C24.8746 17.7119 24.5869 16.8869 24.6339 16.0462C24.6339 14.7401 25.5668 10.4487 27.6192 10.4487C29.6717 10.4487 30.6046 14.7401 30.6046 16.0462C30.6515 16.8869 30.3639 17.7119 29.8046 18.3412C29.4153 18.7792 28.9163 19.0975 28.3656 19.2681V20.1511H29.8585C30.0564 20.1511 30.2462 20.2297 30.3862 20.3697C30.5262 20.5097 30.6048 20.6995 30.6048 20.8974C30.6048 21.0954 30.5262 21.2852 30.3862 21.4252C30.2462 21.5651 30.0564 21.6438 29.8585 21.6438H28.2906C28.1453 22.3554 27.7942 23.0149 27.273 23.5361C26.5731 24.236 25.624 24.6291 24.6343 24.6291H22.3953C21.8014 24.6291 21.2319 24.865 20.812 25.2849C20.3922 25.7048 20.1563 26.2743 20.1563 26.8681V29.1071C20.7984 28.6255 21.5832 28.3608 22.3953 28.3608H24.7313C25.282 28.3577 25.8266 28.4765 26.326 28.7088C26.8254 28.9411 27.2672 29.281 27.6196 29.7042L29.5601 32.0328C29.7674 32.2817 30.0262 32.4826 30.3187 32.6218C30.6112 32.761 30.9304 32.835 31.2543 32.8388H32.844C33.4378 32.8388 34.0073 32.6029 34.4272 32.183C34.6656 31.9446 34.8447 31.658 34.9549 31.3461H33.5907C33.3927 31.3461 33.2029 31.2675 33.0629 31.1275C32.923 30.9876 32.8443 30.7977 32.8443 30.5998C32.8443 30.4019 32.923 30.212 33.0629 30.0721C33.2029 29.9321 33.3927 29.8535 33.5907 29.8535H35.0823V28.9705C34.5316 28.8 34.0326 28.4816 33.6433 28.0436C33.0839 27.4143 32.7963 26.5893 32.8433 25.7486C32.8433 24.4425 33.7762 20.1511 35.8286 20.1511C37.881 20.1511 38.8139 24.4425 38.8139 25.7486C38.8609 26.5893 38.5733 27.4143 38.0139 28.0436C37.6246 28.4816 37.1257 28.7999 36.575 28.9705V29.8535H38.0687C38.2666 29.8535 38.4565 29.9321 38.5964 30.0721C38.7364 30.212 38.815 30.4019 38.815 30.5998C38.815 30.7977 38.7364 30.9876 38.5964 31.1275C38.4565 31.2675 38.2666 31.3461 38.0687 31.3461H36.5003C36.355 32.0577 36.0039 32.7173 35.4827 33.2385C34.7828 33.9383 33.8337 34.3315 32.844 34.3315H31.2543C30.7035 34.3346 30.1589 34.2157 29.6596 33.9835C29.1602 33.7512 28.7184 33.4113 28.366 32.9881L26.4255 30.6595C26.2182 30.4106 25.9594 30.2096 25.6669 30.0705C25.3744 29.9313 25.0552 29.8573 24.7313 29.8535H22.3953C21.8014 29.8535 21.2319 30.0894 20.812 30.5093C20.3922 30.9291 20.1563 31.4986 20.1563 32.0925V34.3315H23.8874C24.0854 34.3315 24.2752 34.4101 24.4152 34.5501C24.5551 34.69 24.6338 34.8799 24.6338 35.0778C24.6338 35.2757 24.5551 35.4656 24.4152 35.6055C24.2752 35.7455 24.0854 35.8241 23.8874 35.8241H23.0659C22.9206 36.5357 22.5695 37.1953 22.0483 37.7165C21.3484 38.4163 20.3993 38.8095 19.4096 38.8095C18.4199 38.8095 17.4707 38.4163 16.7709 37.7165C16.2497 37.1953 15.8985 36.5357 15.7533 35.8241H14.9314C14.7334 35.8241 14.5436 35.7455 14.4036 35.6055C14.2637 35.4656 14.185 35.2757 14.185 35.0778C14.185 34.8799 14.2637 34.69 14.4036 34.5501C14.5436 34.4101 14.7334 34.3315 14.9314 34.3315H18.6636V32.1088L18.6634 32.0925C18.6634 31.4986 18.4275 30.9291 18.0076 30.5093C17.5877 30.0894 17.0182 29.8535 16.4244 29.8535H14.0884C13.7607 29.854 13.4371 29.9265 13.1405 30.0658C12.8439 30.205 12.5815 30.4077 12.3718 30.6595L10.4537 32.9881C10.1012 33.4113 9.65946 33.7512 9.16009 33.9835C8.66072 34.2157 8.11612 34.3346 7.56538 34.3315H5.97569C4.98598 34.3315 4.03682 33.9383 3.33699 33.2385C2.81576 32.7173 2.46465 32.0577 2.31939 31.3461H0.751505C0.553564 31.3461 0.363731 31.2675 0.223766 31.1275C0.0838003 30.9876 0.00516854 30.7977 0.00516854 30.5998C0.00516854 30.4019 0.0838003 30.212 0.223766 30.0721C0.363731 29.9321 0.553564 29.8535 0.751505 29.8535H2.24401V28.9705C1.69327 28.8 1.19431 28.4816 0.804975 28.0436C0.245621 27.4143 -0.0419892 26.5893 0.00496406 25.7486C0.00496406 24.4425 0.937885 20.1511 2.99031 20.1511C5.04273 20.1511 5.97565 24.4425 5.97565 25.7486C6.02261 26.5893 5.735 27.4143 5.17564 28.0436C4.78633 28.4816 4.28738 28.7999 3.73668 28.9705V29.8535H5.22952C5.42746 29.8535 5.6173 29.9321 5.75726 30.0721C5.89723 30.212 5.97586 30.4019 5.97586 30.5998C5.97586 30.7977 5.89723 30.9876 5.75726 31.1275C5.6173 31.2675 5.42746 31.3461 5.22952 31.3461H3.86473C3.97501 31.658 4.15409 31.9446 4.39247 32.183C4.81236 32.6029 5.38187 32.8388 5.97569 32.8388H7.56538C7.89306 32.8382 8.21662 32.7658 8.51322 32.6265C8.80983 32.4872 9.07225 32.2845 9.28196 32.0328L11.2 29.7042C11.5525 29.281 11.9943 28.9411 12.4937 28.7088C12.993 28.4765 13.5376 28.3577 14.0884 28.3608H16.4244C17.2365 28.3608 18.0214 28.6255 18.6636 29.1072V26.896C18.6632 26.8867 18.6631 26.8774 18.6631 26.8681C18.6631 26.2743 18.4272 25.7048 18.0073 25.2849C17.5874 24.865 17.0179 24.6291 16.4241 24.6291H14.185C13.1953 24.6291 12.2462 24.236 11.5463 23.5361C11.0251 23.0149 10.674 22.3554 10.5287 21.6438H8.96172C8.76378 21.6438 8.57395 21.5651 8.43398 21.4252C8.29402 21.2852 8.21539 21.0954 8.21539 20.8974C8.21539 20.6995 8.29402 20.5097 8.43398 20.3697C8.57395 20.2297 8.76378 20.1511 8.96172 20.1511H10.4534V19.2682C9.90263 19.0976 9.40367 18.7792 9.01433 18.3412C8.45498 17.7119 8.16737 16.8869 8.21432 16.0462C8.21432 14.7401 9.14724 10.4487 11.1997 10.4487C13.2521 10.4487 14.185 14.7401 14.185 16.0462C14.232 16.8869 13.9444 17.7119 13.385 18.3412C12.9957 18.7792 12.4967 19.0975 11.946 19.2681V20.1511H13.4397C13.6377 20.1511 13.8275 20.2297 13.9675 20.3697C14.1074 20.5097 14.1861 20.6995 14.1861 20.8974C14.1861 21.0954 14.1074 21.2852 13.9675 21.4252C13.8275 21.5651 13.6377 21.6438 13.4397 21.6438H12.0741C12.1844 21.9557 12.3634 22.2423 12.6018 22.4807C13.0217 22.9006 13.5912 23.1364 14.185 23.1364H16.4241C17.2364 23.1364 18.0213 23.4013 18.6636 23.8832V11.9414H17.9171C17.7191 11.9414 17.5293 11.8627 17.3893 11.7228C17.2494 11.5828 17.1707 11.393 17.1707 11.195C17.1707 10.9971 17.2494 10.8073 17.3893 10.6673C17.5293 10.5273 17.7191 10.4487 17.9171 10.4487H18.6636L18.6631 5.22436ZM15.7747 1.49267C15.9401 2.13313 16.3135 2.70052 16.8363 3.10578C17.359 3.51103 18.0016 3.73119 18.6631 3.73168H20.1557C20.8172 3.73119 21.4598 3.51103 21.9825 3.10578C22.5053 2.70052 22.8787 2.13313 23.0441 1.49267H15.7747ZM27.6194 17.912C28.0618 17.8559 28.4649 17.6297 28.7435 17.2815C29.0221 16.9332 29.1543 16.4902 29.1119 16.0462C29.1119 14.5461 28.1268 12.0683 27.6192 11.9414C27.1192 12.0683 26.1266 14.5461 26.1266 16.0462C26.0842 16.4902 26.2164 16.9332 26.495 17.2815C26.7736 17.6297 27.1771 17.8559 27.6194 17.912ZM17.2974 35.8241C17.4513 36.2615 17.7371 36.6403 18.1154 36.9083C18.4938 37.1762 18.946 37.3201 19.4096 37.3201C19.8732 37.3201 20.3254 37.1762 20.7037 36.9083C21.082 36.6403 21.3679 36.2615 21.5217 35.8241H19.4138L19.4099 35.8242L19.406 35.8241H17.2974ZM2.99031 21.6438C2.49026 21.7707 1.49764 24.2485 1.49764 25.7486C1.4553 26.1926 1.58743 26.6356 1.86604 26.9839C2.14465 27.3322 2.54787 27.5583 2.99031 27.6145C3.43275 27.5583 3.83597 27.3322 4.11458 26.9839C4.39319 26.6356 4.52531 26.1926 4.48298 25.7486C4.48298 24.2485 3.49782 21.7707 2.99031 21.6438ZM34.3359 25.7486C34.3359 24.2485 35.3286 21.7707 35.8286 21.6438C36.3361 21.7707 37.3213 24.2485 37.3213 25.7486C37.3636 26.1926 37.2315 26.6356 36.9529 26.9839C36.6743 27.3322 36.271 27.5583 35.8286 27.6145C35.3862 27.5583 34.9829 27.3322 34.7043 26.9839C34.4257 26.6356 34.2936 26.1926 34.3359 25.7486ZM11.1997 17.912C10.7573 17.8559 10.354 17.6297 10.0754 17.2815C9.79679 16.9332 9.66466 16.4902 9.70699 16.0462C9.70699 14.5461 10.6996 12.0683 11.1997 11.9414C11.7072 12.0683 12.6923 14.5461 12.6923 16.0462C12.7347 16.4902 12.6025 16.9332 12.3239 17.2815C12.0454 17.6297 11.6421 17.8559 11.1997 17.912Z" fill="#00CA9D"/>
</svg>
