<svg width="27" height="39" viewBox="0 0 27 39" fill="none" xmlns="http://www.w3.org/2000/svg">
<path d="M13.2556 33.6341C5.94629 33.6341 0 27.6801 0 20.3614V15.697C0 15.2666 0.349323 14.9173 0.779739 14.9173H3.11896C3.54937 14.9173 3.8987 15.2666 3.8987 15.697C3.8987 16.1274 3.54937 16.4768 3.11896 16.4768H1.55948V20.3614C1.55948 26.8208 6.80556 32.0747 13.2556 32.0747C19.7056 32.0747 24.9517 26.8348 24.9517 20.3942V16.4768H23.3922C22.9633 16.4768 22.6124 16.1274 22.6124 15.697C22.6124 15.2666 22.9633 14.9173 23.3922 14.9173H25.7314C26.1602 14.9173 26.5111 15.2666 26.5111 15.697V20.3942C26.5111 27.6941 20.5664 33.6341 13.2556 33.6341Z" fill="#00CA9D"/>
<path d="M13.2558 30.5152C7.66658 30.5152 3.11914 25.96 3.11914 20.3614V11.0373C3.11914 5.42006 7.66658 0.855469 13.2558 0.855469C18.8449 0.855469 23.3924 5.37796 23.3924 10.9437V20.3989C23.3924 25.9755 18.8449 30.5152 13.2558 30.5152ZM13.2558 2.41027C8.52585 2.41027 4.67862 6.27622 4.67862 11.0326V20.3567C4.67862 25.096 8.52585 28.951 13.2558 28.951C17.9856 28.951 21.8329 25.11 21.8329 20.3895V10.9359C21.8329 6.23567 17.9856 2.41027 13.2558 2.41027Z" fill="#00CA9D"/>
<path d="M13.2553 37.5297C12.8249 37.5297 12.4756 37.1804 12.4756 36.75V33.631C12.4756 33.2006 12.8249 32.8513 13.2553 32.8513C13.6857 32.8513 14.0351 33.2006 14.0351 33.631V36.75C14.0351 37.1804 13.6857 37.5297 13.2553 37.5297Z" fill="#00CA9D"/>
<path d="M18.7146 38.3095H7.79829C7.36788 38.3095 7.01855 37.9601 7.01855 37.5297C7.01855 37.0993 7.36788 36.75 7.79829 36.75H18.7146C19.1435 36.75 19.4944 37.0993 19.4944 37.5297C19.4944 37.9601 19.1435 38.3095 18.7146 38.3095Z" fill="#00CA9D"/>
<path d="M21.8334 13.3578H4.67915C4.24874 13.3578 3.89941 13.0085 3.89941 12.5781C3.89941 12.1476 4.24874 11.7983 4.67915 11.7983H21.8334C22.2623 11.7983 22.6132 12.1476 22.6132 12.5781C22.6132 13.0085 22.2623 13.3578 21.8334 13.3578Z" fill="#00CA9D"/>
<path d="M13.2553 7.89963C12.8249 7.89963 12.4756 7.5503 12.4756 7.11989V2.44145C12.4756 2.01104 12.8249 1.66171 13.2553 1.66171C13.6857 1.66171 14.0351 2.01104 14.0351 2.44145V7.11989C14.0351 7.5503 13.6857 7.89963 13.2553 7.89963Z" fill="#00CA9D"/>
<path d="M16.3745 7.89963C15.9456 7.89963 15.5947 7.5503 15.5947 7.11989V2.44145C15.5947 2.01104 15.9456 1.66171 16.3745 1.66171C16.8033 1.66171 17.1542 2.01104 17.1542 2.44145V7.11989C17.1542 7.5503 16.8033 7.89963 16.3745 7.89963Z" fill="#00CA9D"/>
<path d="M19.4926 7.89963C19.0638 7.89963 18.7129 7.55031 18.7129 7.1199V4.00094C18.7129 3.57052 19.0638 3.2212 19.4926 3.2212C19.9215 3.2212 20.2724 3.57052 20.2724 4.00094V7.1199C20.2724 7.55031 19.9215 7.89963 19.4926 7.89963Z" fill="#00CA9D"/>
<path d="M10.1362 7.89963C9.70577 7.89963 9.35645 7.5503 9.35645 7.11989V2.44145C9.35645 2.01104 9.70577 1.66171 10.1362 1.66171C10.5666 1.66171 10.9159 2.01104 10.9159 2.44145V7.11989C10.9159 7.5503 10.5666 7.89963 10.1362 7.89963Z" fill="#00CA9D"/>
<path d="M7.01704 7.89963C6.58663 7.89963 6.2373 7.55031 6.2373 7.1199V4.00094C6.2373 3.57052 6.58663 3.2212 7.01704 3.2212C7.44746 3.2212 7.79678 3.57052 7.79678 4.00094V7.1199C7.79678 7.55031 7.44746 7.89963 7.01704 7.89963Z" fill="#00CA9D"/>
</svg>
