<svg width="41" height="40" viewBox="0 0 41 40" fill="none" xmlns="http://www.w3.org/2000/svg">
<path d="M39.5125 27.5486H37.3178V19.7777C37.3178 19.5085 37.0998 19.2902 36.8303 19.2902H28.201C28.494 18.8939 28.6732 18.4089 28.6732 17.8793V13.1262H28.9227C31.4473 13.1262 33.5016 11.0738 33.5016 8.55089C33.5016 6.02794 31.4473 3.97534 28.9227 3.97534H28.6732V0.79707C28.6732 0.52785 28.4552 0.30957 28.1857 0.30957H12.0006C11.7312 0.30957 11.5131 0.52785 11.5131 0.79707V17.8793C11.5131 18.4089 11.6924 18.8939 11.9854 19.2902H4.1697C3.90024 19.2902 3.6822 19.5085 3.6822 19.7777V27.5486H1.4875C1.21804 27.5486 1 27.7669 1 28.0361V38.8221C1 39.0913 1.21804 39.3096 1.4875 39.3096H39.5125C39.782 39.3096 40 39.0913 40 38.8221V28.0361C40 27.7669 39.782 27.5486 39.5125 27.5486ZM28.9227 4.95034C30.9098 4.95034 32.5266 6.56542 32.5266 8.55089C32.5266 10.5361 30.9098 12.1512 28.9227 12.1512H28.6732V4.95034H28.9227ZM12.4881 17.8793V1.28457H27.6982V17.8793C27.6982 18.6572 27.0651 19.2902 26.2872 19.2902H13.8992C13.1213 19.2902 12.4881 18.6572 12.4881 17.8793ZM4.6572 20.2652H13.8992H26.2872H36.3428V27.5486H4.6572V20.2652ZM39.025 38.3346H1.975V28.5236H39.025V38.3346Z" fill="#00CA9D" stroke="#00CA9D" stroke-width="0.5"/>
<path d="M4.61543 36.38H22.1949C22.4644 36.38 22.6824 36.1618 22.6824 35.8925V30.9656C22.6824 30.6964 22.4644 30.4781 22.1949 30.4781H4.61543C4.34597 30.4781 4.12793 30.6964 4.12793 30.9656V35.8925C4.12793 36.1618 4.34597 36.38 4.61543 36.38ZM21.7074 35.405H10.5602V31.4531H21.7074V35.405ZM5.10293 31.4531H9.58517V35.405H5.10293V31.4531Z" fill="#00CA9D" stroke="#00CA9D" stroke-width="0.5"/>
<path d="M33.9314 36.6385C35.6996 36.6385 37.1378 35.1989 37.1378 33.4291C37.1378 31.6593 35.6996 30.2196 33.9314 30.2196C32.1633 30.2196 30.7246 31.6593 30.7246 33.4291C30.7246 35.1989 32.1633 36.6385 33.9314 36.6385ZM33.9314 31.1946C35.1616 31.1946 36.1628 32.197 36.1628 33.4291C36.1628 34.6612 35.1616 35.6635 33.9314 35.6635C32.7008 35.6635 31.6996 34.6612 31.6996 33.4291C31.6996 32.197 32.7008 31.1946 33.9314 31.1946Z" fill="#00CA9D" stroke="#00CA9D" stroke-width="0.5"/>
<path d="M7.77461 22.3916C7.50515 22.3916 7.28711 22.6098 7.28711 22.8791V24.89C7.28711 25.1592 7.50515 25.3775 7.77461 25.3775C8.04407 25.3775 8.26211 25.1592 8.26211 24.89V22.8791C8.26211 22.6098 8.04407 22.3916 7.77461 22.3916Z" fill="#00CA9D" stroke="#00CA9D" stroke-width="0.5"/>
<path d="M10.1516 22.3916C9.8821 22.3916 9.66406 22.6098 9.66406 22.8791V24.89C9.66406 25.1592 9.8821 25.3775 10.1516 25.3775C10.421 25.3775 10.6391 25.1592 10.6391 24.89V22.8791C10.6391 22.6098 10.421 22.3916 10.1516 22.3916Z" fill="#00CA9D" stroke="#00CA9D" stroke-width="0.5"/>
<path d="M26.432 23.397H14.6506C14.3811 23.397 14.1631 23.6153 14.1631 23.8845C14.1631 24.1538 14.3811 24.372 14.6506 24.372H26.432C26.7015 24.372 26.9195 24.1538 26.9195 23.8845C26.9195 23.6153 26.7015 23.397 26.432 23.397Z" fill="#00CA9D" stroke="#00CA9D" stroke-width="0.5"/>
</svg>
