<svg width="41" height="43" viewBox="0 0 41 43" fill="none" xmlns="http://www.w3.org/2000/svg">
<path d="M34.8219 16.6726C35.0214 16.6727 35.2135 16.5949 35.3588 16.4552L40.5082 11.5142C40.5864 11.4393 40.6487 11.3487 40.6913 11.2482C40.7339 11.1477 40.7559 11.0393 40.7559 10.9298C40.7559 10.8202 40.7339 10.7119 40.6913 10.6113C40.6487 10.5108 40.5864 10.4203 40.5082 10.3454L35.3588 5.40404C35.2135 5.26432 35.0214 5.18657 34.8219 5.18668H22.8276V1.11136C22.8276 1.00606 22.8074 0.901798 22.7679 0.804517C22.7285 0.707237 22.6707 0.618845 22.5979 0.544391C22.525 0.469937 22.4385 0.410878 22.3433 0.370587C22.2481 0.330296 22.1461 0.309563 22.0431 0.30957H19.123C19.0199 0.309563 18.9179 0.330296 18.8227 0.370587C18.7275 0.410878 18.641 0.469937 18.5682 0.544391C18.4953 0.618845 18.4375 0.707237 18.3981 0.804517C18.3587 0.901798 18.3384 1.00606 18.3384 1.11136V5.18667H1.54044C1.43741 5.18666 1.33538 5.2074 1.24019 5.24769C1.14499 5.28798 1.0585 5.34704 0.985644 5.42149C0.912788 5.49595 0.854997 5.58434 0.815571 5.68162C0.776145 5.7789 0.755856 5.88316 0.755863 5.98846V15.8708C0.755856 15.9761 0.776145 16.0803 0.815571 16.1776C0.854997 16.2749 0.912788 16.3633 0.985644 16.4377C1.0585 16.5122 1.14499 16.5713 1.24019 16.6115C1.33538 16.6518 1.43741 16.6726 1.54044 16.6726H18.3384V18.791H6.68985C6.4903 18.7909 6.29824 18.8687 6.1529 19.0084L1.00349 23.9497C0.925324 24.0247 0.863019 24.1152 0.820426 24.2157C0.777834 24.3162 0.755859 24.4246 0.755859 24.5342C0.755859 24.6437 0.777834 24.7521 0.820426 24.8526C0.863019 24.9531 0.925324 25.0436 1.00349 25.1186L6.1529 30.0599C6.29824 30.1996 6.4903 30.2774 6.68985 30.2773H18.3384V41.5078C18.3384 41.6131 18.3587 41.7173 18.3981 41.8146C18.4375 41.9119 18.4953 42.0003 18.5682 42.0747C18.641 42.1492 18.7275 42.2083 18.8227 42.2486C18.9179 42.2888 19.0199 42.3096 19.123 42.3096H22.0431C22.1461 42.3096 22.2481 42.2888 22.3433 42.2486C22.4385 42.2083 22.525 42.1492 22.5979 42.0747C22.6707 42.0003 22.7285 41.9119 22.7679 41.8146C22.8074 41.7173 22.8276 41.6131 22.8276 41.5078V30.2772H39.9713C40.0743 30.2772 40.1763 30.2565 40.2715 30.2162C40.3667 30.1759 40.4532 30.1169 40.5261 30.0424C40.5989 29.968 40.6567 29.8796 40.6961 29.7823C40.7356 29.685 40.7559 29.5807 40.7559 29.4754V19.5928C40.7559 19.4875 40.7356 19.3833 40.6961 19.286C40.6567 19.1887 40.5989 19.1003 40.5261 19.0258C40.4532 18.9514 40.3667 18.8923 40.2715 18.852C40.1763 18.8118 40.0743 18.791 39.9713 18.791H22.8276V16.6726H34.8219ZM19.9075 1.91314H21.2585V5.18667H19.9075V1.91314ZM2.32502 6.79024H34.5111L38.825 10.9298L34.5111 15.069H2.32502V6.79024ZM21.2585 40.706H19.9075V30.2772H21.2585L21.2585 40.706ZM39.1867 28.6737H7.00064L2.68672 24.5341L7.00064 20.3946H39.1867L39.1867 28.6737ZM21.2585 18.791H19.9075V16.6726H21.2585V18.791Z" fill="#00CA9D"/>
<rect x="5.58398" y="40.6819" width="30.3433" height="1.62775" fill="#00CA9D"/>
</svg>
