<svg width="46" height="27" viewBox="0 0 46 27" fill="none" xmlns="http://www.w3.org/2000/svg">
<path d="M22.6163 21.7619C24.112 23.5426 26.0862 24.9067 28.3391 25.6579C28.3538 25.6638 28.3684 25.6684 28.3837 25.673C29.6322 26.0841 30.9642 26.3097 32.3486 26.3097C39.3562 26.3097 45.0576 20.6083 45.0576 13.6007C45.0576 12.4006 44.8867 11.2403 44.5744 10.1389C44.5723 10.1266 44.5672 10.1155 44.5643 10.1034C43.041 4.79167 38.1432 0.891769 32.3486 0.891769C25.341 0.891769 19.6396 6.59312 19.6396 13.6007C19.6396 16.5163 20.629 19.2038 22.2863 21.3506C22.2876 21.3586 22.2847 21.3662 22.2863 21.3742C22.3235 21.5584 22.4529 21.699 22.6163 21.7619ZM23.8557 21.5629C30.0698 19.8944 32.3821 15.0076 32.7817 14.0467C33.6363 13.8894 36.1399 13.5763 38.8912 14.6006C38.2722 16.1954 35.2745 22.9742 28.5596 24.6146C26.7489 23.9899 25.1396 22.9316 23.8557 21.5629ZM25.2996 4.43152C25.3139 4.39435 25.3131 4.35644 25.3187 4.31865C26.2179 3.63591 27.2185 3.08052 28.2942 2.67984C27.8565 4.72505 28.0067 6.5563 28.4303 8.11684C28.4341 8.14415 28.4298 8.17107 28.4381 8.19829C28.444 8.21774 28.4579 8.23154 28.4658 8.24977C29.3558 11.3842 31.3268 13.3932 31.7378 13.7857C31.4078 14.505 30.3299 16.5502 28.1089 18.2884C26.9232 16.7439 22.8652 10.7896 25.2996 4.43152ZM43.9985 13.6007C43.9985 14.5837 43.8749 15.538 43.6446 16.4504C39.2367 12.0195 33.7322 12.7793 32.475 13.0269C32.1763 12.7522 30.4724 11.0999 29.5967 8.42411C31.4267 7.99725 37.9959 6.84295 43.5933 10.5599C43.8559 11.5299 43.9985 12.5488 43.9985 13.6007ZM32.3486 25.2506C31.7249 25.2506 31.1128 25.2 30.5154 25.1051C36.5469 22.7531 39.2279 16.6978 39.8686 15.0183C41.0284 15.5836 42.2006 16.4151 43.2865 17.612C41.6481 22.0655 37.3635 25.2506 32.3486 25.2506ZM43.0423 8.98371C37.3113 5.82405 31.1433 6.95572 29.3192 7.39787C28.9982 5.93323 28.9562 4.22286 29.4725 2.31087C30.3929 2.07629 31.3563 1.95085 32.3486 1.95085C37.1327 1.95085 41.2509 4.85042 43.0423 8.98371ZM23.809 5.68753C22.3285 11.9167 26.0046 17.3144 27.2429 18.908C26.1137 19.6461 24.7417 20.2794 23.091 20.6618C21.5919 18.7011 20.6987 16.2538 20.6987 13.6007C20.6987 10.5479 21.8807 7.767 23.809 5.68753Z" fill="#00CA9D" stroke="#00CA9D" stroke-width="0.4"/>
<circle cx="13.7094" cy="13.6007" r="11.8617" fill="white"/>
<path fill-rule="evenodd" clip-rule="evenodd" d="M13.791 0.623047C20.8799 0.623047 26.5819 6.35942 26.5819 13.4048C26.5819 20.4886 20.8799 26.1865 13.791 26.1865C6.74052 26.1865 1 20.4886 1 13.4048C1 6.35942 6.74052 0.623047 13.791 0.623047ZM13.6368 8.39988V4.16497L10.4006 2.31701C8.89803 2.779 7.51106 3.51048 6.31672 4.51146V8.39988L9.97679 10.5173C11.3638 9.74735 12.1728 9.24686 13.6368 8.39988ZM10.5932 11.5183V15.7532L14.2148 17.8707L17.8748 15.7532V11.5183L14.2148 9.40086C12.7507 10.2478 11.8261 10.7868 10.5932 11.5183ZM2.77224 9.78585L5.16091 8.39988V5.66644C4.08216 6.85991 3.27309 8.24588 2.77224 9.78585ZM12.0958 1.93202L14.2148 3.16399L16.1796 2.04752C14.8312 1.77802 13.4442 1.73952 12.0958 1.93202ZM17.7207 2.47101L14.8312 4.16497V8.39988L18.4527 10.5173L22.1128 8.39988V5.28145C20.8799 4.04947 19.4159 3.08699 17.7207 2.47101ZM23.3071 6.70591V8.39988L24.617 9.16986C24.2703 8.28438 23.8465 7.4759 23.3071 6.70591ZM25.1179 10.8253L22.6907 9.40086L19.0692 11.5183V15.7532L22.6907 17.8707L25.0023 16.5617C25.272 15.5607 25.4261 14.5212 25.4261 13.4048C25.4261 12.5193 25.3105 11.6338 25.1179 10.8253ZM24.3473 18.2942L23.3071 18.9101V20.1421C23.6924 19.5646 24.0777 18.9486 24.3473 18.2942ZM22.1128 21.5281V18.9101L18.4527 16.7927L14.8312 18.9101V23.1451L17.2199 24.531C19.1077 23.9535 20.7643 22.9141 22.1128 21.5281ZM15.5247 24.916L14.2148 24.146L12.7893 24.993C13.7139 25.07 14.6 25.0315 15.5247 24.916ZM10.9785 24.685L13.6368 23.1451V18.9101L9.97679 16.7927L6.31672 18.9101V22.3366C7.66517 23.4145 9.24477 24.2615 10.9785 24.685ZM5.16091 21.1816V18.9101L2.96488 17.6397C3.46573 18.9486 4.23627 20.1421 5.16091 21.1816ZM2.46403 15.9842L5.73882 17.8707L9.39888 15.7532V11.5183L5.73882 9.40086L2.34844 11.3643C2.23286 12.0188 2.19434 12.7118 2.19434 13.4048C2.19434 14.2902 2.27139 15.1757 2.46403 15.9842Z" fill="#00CA9D" stroke="#00CA9D" stroke-width="0.2"/>
</svg>
