<svg width="285" height="86" viewBox="0 0 285 86" fill="none" xmlns="http://www.w3.org/2000/svg">
<path fill-rule="evenodd" clip-rule="evenodd" d="M83.6801 24.762C90.5729 41.145 82.5033 60.0708 65.6496 67.0742C48.7959 74.0776 29.5465 66.4489 22.6538 50.066C15.761 33.6413 23.8306 14.7155 40.6843 7.71211C57.538 0.750403 76.7874 8.3791 83.6801 24.762Z" fill="url(#paint0_linear)"/>
<path fill-rule="evenodd" clip-rule="evenodd" d="M37.7001 30.1396C36.4813 30.1396 36.8175 29.0141 34.7581 29.0141C34.5059 29.0141 32.9508 29.2225 32.8668 28.9724C32.6566 28.5555 34.0856 27.9719 33.119 27.5134C32.6987 27.3049 32.4885 27.1382 32.1103 27.2632C31.6059 27.3883 30.9755 28.3888 30.7653 27.2632C30.6392 26.6379 31.9001 26.1794 31.69 25.6791C31.2277 24.637 29.8407 27.1382 27.445 27.1799C26.5204 27.1799 26.3523 26.5546 25.6378 26.3878C24.7131 26.1377 24.545 26.8881 25.0494 27.43C23.8725 27.9302 25.974 28.9724 26.0581 29.3893C25.5117 29.556 24.3349 29.8061 24.8812 30.5148C25.1754 30.89 26.6044 31.0151 27.1088 31.0151C27.9914 31.0151 29.2102 30.1396 30.0508 30.0146C30.0508 30.6399 30.0929 31.3902 30.0929 32.1823C29.8407 32.224 29.5885 32.224 29.4204 32.2657C28.7479 32.3907 26.3523 32.9327 25.7218 33.016C25.1754 33.0994 24.587 32.349 24.0407 32.5992C23.7465 32.7242 23.4522 33.5997 23.158 33.8915C22.7378 34.35 22.3595 34.5584 21.7291 34.7252C21.0986 34.8919 20.0059 34.2666 19.7957 34.8503C19.6696 35.2254 20.7203 36.0175 21.1406 36.1009C21.8972 36.2676 23.4522 36.1009 24.2088 36.0175C24.8812 35.9341 27.1088 36.0592 27.7813 35.9758C28.2015 35.9341 29.2943 35.9758 29.5465 36.351C30.1769 37.2264 28.79 36.8512 28.4537 37.2264C27.7813 38.0601 29.0421 38.4353 30.0508 38.6021C30.0088 46.5643 29.7987 55.9021 29.8407 56.8609C30.8494 56.4024 31.3117 57.1527 31.3537 55.9021C31.3958 55.0267 31.3537 54.0262 31.2697 53.1508C31.1436 52.1086 30.9755 45.0218 30.8914 38.7271C30.9755 38.7271 31.0595 38.7271 31.1016 38.7271C32.4045 38.6438 32.8668 37.4765 34.0856 37.3098C34.8842 37.1847 37.2799 36.1425 35.4306 35.5172C34.8422 35.3505 34.0016 35.6006 33.4552 35.684C33.119 35.7257 31.9842 35.7257 30.8074 35.684C30.8074 35.1004 30.8074 34.5168 30.8074 33.9748C31.4798 33.7664 32.1943 33.5163 32.4045 33.1411C32.3204 32.4324 31.5639 32.1823 30.8074 32.1823C30.8074 31.5987 30.8074 31.0568 30.8494 30.5982C31.3537 32.6825 35.1364 31.9739 35.9349 31.9322C36.9857 31.8905 38.5828 32.224 39.7596 31.9322C41.2306 31.5987 40.6002 30.8483 40.8944 30.8066C41.3987 30.7233 42.7016 30.5565 42.8277 30.2647C43.0799 29.7228 39.0871 30.1396 37.7001 30.1396ZM30.0508 35.6423C29.0842 35.6006 28.2015 35.5589 27.9073 35.5589C27.4871 35.5589 27.1508 35.4756 26.7305 35.3088C27.6131 34.7252 28.6218 34.6001 29.5885 34.2666C29.7146 34.225 29.8407 34.1833 30.0088 34.1416C30.0508 34.6418 30.0508 35.1421 30.0508 35.6423Z" fill="url(#paint1_linear)"/>
<path fill-rule="evenodd" clip-rule="evenodd" d="M22.2755 23.2613C23.6624 23.6782 24.503 23.4281 24.8813 23.5531C25.8059 23.7616 25.5537 24.637 26.3103 25.0122C26.9407 25.3457 28.1596 25.3457 28.9161 25.2623C30.177 25.0955 30.9755 24.637 32.1523 25.3457C33.161 25.971 33.4552 26.9714 34.7161 27.1382C39.0451 27.6801 40.6843 24.637 40.6843 24.637C41.6509 23.5114 38.0784 24.3869 37.7002 24.4702C36.9857 24.5953 35.3886 24.5119 35.5567 23.5948C35.6407 23.2196 36.1451 23.0529 36.3552 22.6777C36.6074 22.2608 38.0784 21.0936 36.4393 21.3854C35.3886 21.5521 34.1277 22.0107 33.9176 21.5105C33.5393 20.5934 36.9016 19.4678 36.2712 18.9676C35.8089 18.5924 34.0436 19.2594 33.4132 19.3844C31.4378 19.7596 30.8915 19.0093 31.4799 17.9671C31.69 17.5919 32.3204 17.175 32.2784 16.7165C32.1523 15.8827 31.648 16.4664 31.1436 16.7165C29.2943 17.6753 29.7146 15.716 29.3364 14.8823C28.7059 13.4649 27.5711 14.1319 27.0668 15.1741C26.8146 15.6743 26.7726 16.2996 26.8987 16.7998C27.0248 17.3835 27.361 17.6336 26.9407 18.1755C26.1421 19.3011 25.5537 19.3844 24.3769 18.8008C23.9146 18.5507 22.3595 17.7586 21.8131 18.2172C21.3929 18.5924 22.2334 19.0093 22.5276 19.3427C22.9479 19.843 24.6711 20.8435 24.419 21.6355C24.0827 22.636 22.0233 22.2608 20.7624 21.9273C19.7957 21.6772 21.4349 23.0112 22.2755 23.2613Z" fill="url(#paint2_linear)"/>
<path fill-rule="evenodd" clip-rule="evenodd" d="M23.8726 25.5958C23.8726 25.5958 25.0914 25.0538 25.1335 24.6787C25.2175 23.8449 23.5784 24.1367 22.8639 24.095C21.8972 24.0534 21.3929 23.8032 20.7204 23.0946C20.4682 22.8444 20.2581 22.4276 19.9218 22.5526C19.4595 22.7194 19.7117 23.3447 19.8798 23.6365C19.1233 24.1367 18.4088 22.0524 18.0305 23.0112C17.7783 23.5948 18.8711 24.3452 19.2073 24.5536C19.9218 25.0122 20.8885 25.2206 21.6871 25.3457C22.2334 25.4707 23.3682 25.971 23.8726 25.5958Z" fill="url(#paint3_linear)"/>
<path fill-rule="evenodd" clip-rule="evenodd" d="M53.3771 27.5967C52.5365 27.3883 52.0321 27.0965 51.4858 26.4712C51.1495 26.096 50.7292 24.9705 50.3089 24.762C49.5944 24.4285 48.7539 25.429 48.0394 25.304C47.1988 25.1789 44.0046 24.4702 43.1219 24.3035C42.8698 24.2618 42.5756 24.2201 42.2393 24.1784C42.2393 23.0946 42.2814 22.0941 42.2814 21.2603C43.3741 21.4271 45.0133 22.5526 46.1901 22.5943C46.8205 22.5943 48.7539 22.4276 49.1321 21.9273C49.8466 21.0102 48.2495 20.635 47.535 20.4266C47.6611 19.8847 50.435 18.4673 48.922 17.842C49.5944 17.0917 49.3423 16.1329 48.1234 16.4247C47.2408 16.6748 47.0727 17.5085 45.8118 17.5085C42.5756 17.4668 40.7263 14.1319 40.0958 15.5076C39.8016 16.1745 41.4828 16.7582 41.3147 17.6336C41.0205 19.1343 40.1799 17.8003 39.5074 17.6336C39.0031 17.5085 38.6668 17.717 38.1625 17.9671C36.8596 18.5924 38.7509 19.3427 38.4987 19.9264C38.3306 20.2599 36.2712 20.0097 35.9349 20.0097C33.161 19.9681 33.6654 21.4688 31.9842 21.4688C30.1769 21.4688 24.8392 20.9268 25.1755 21.6772C25.3436 22.0524 27.1088 22.2608 27.7813 22.3859C28.1595 22.4693 27.319 23.4281 29.2943 23.8866C30.8494 24.2201 32.9509 23.8032 34.3799 23.8449C35.4726 23.8866 40.5161 24.8454 41.1886 22.0524C41.1886 22.6777 41.2306 23.3864 41.2306 24.1367C40.1799 24.1784 39.1712 24.4702 39.0871 25.429C39.4234 25.971 40.348 26.3045 41.2306 26.5546C41.2306 27.2633 41.2306 28.0553 41.2306 28.8474C39.6755 28.889 38.1205 28.9307 37.7002 28.8474C36.9436 28.7223 35.8509 28.3471 35.0944 28.5972C32.6567 29.3893 35.8929 30.8066 36.9016 30.9734C38.5408 31.2235 39.1292 32.7659 40.8944 32.891C40.9785 32.891 41.0625 32.891 41.1886 32.891C41.0625 41.3117 40.8103 50.7746 40.6842 52.192C40.5582 53.3592 40.4741 54.6932 40.5582 55.8604C40.6422 57.5696 41.2727 56.5691 42.5756 57.1527C42.6176 55.9021 42.3654 43.3961 42.2814 32.7659C43.6263 32.5575 45.3075 32.0156 44.4248 30.9317C43.9625 30.3898 42.1132 30.89 42.9538 29.7228C43.3321 29.2642 44.8031 29.1808 45.3075 29.2225C46.1901 29.3059 49.1321 29.1392 50.0568 29.2642C51.0655 29.3893 53.1669 29.556 54.1756 29.3476C54.722 29.2225 56.151 28.1387 55.9829 27.6801C55.7307 26.9714 54.2597 27.8052 53.3771 27.5967ZM45.0973 28.764C44.7611 28.764 43.5843 28.8057 42.2393 28.8474C42.2393 28.1804 42.2393 27.5134 42.2393 26.8881C42.4495 26.9298 42.6596 27.0131 42.7857 27.0548C44.0466 27.5134 45.3915 27.6384 46.6104 28.4305C46.106 28.6389 45.6857 28.764 45.0973 28.764Z" fill="url(#paint4_linear)"/>
<path fill-rule="evenodd" clip-rule="evenodd" d="M35.9349 17.4251C37.6581 17.2167 38.0364 15.8827 39.3813 15.049C40.9364 14.0902 42.0292 14.7155 43.7103 14.9239C44.7611 15.049 46.3582 15.0073 47.1987 14.5904C48.2495 14.0902 47.9132 12.9646 49.1321 12.6728C49.6785 12.5478 50.8133 12.8396 52.6205 12.2977C53.7553 11.9642 55.9408 10.1716 54.5539 10.5468C52.8727 11.0054 50.1408 11.5473 49.6785 10.1716C49.3422 9.12945 51.6118 7.79548 52.2002 7.12849C52.5785 6.66993 53.7133 6.128 53.1249 5.62776C52.4524 5.00246 50.3509 6.08631 49.7205 6.41981C48.1654 7.21186 47.3248 7.04511 46.3161 5.58607C45.8118 4.83571 46.2741 4.5439 46.4002 3.75185C46.5263 3.08486 46.4842 2.25112 46.148 1.54245C45.5176 0.125093 43.9625 -0.750331 43.1219 1.16726C42.6596 2.29281 43.1639 4.91908 40.7262 3.62679C40.0958 3.29329 39.3813 2.54293 39.2132 3.66848C39.1291 4.25209 40.0118 4.83571 40.2639 5.29426C41.0625 6.71162 40.348 7.67041 37.7001 7.17017C36.8596 7.00343 34.5059 6.128 33.8755 6.62824C33.0769 7.29523 37.49 8.83765 37.0277 10.0466C36.7755 10.7136 35.0523 10.0883 33.6653 9.83813C31.4798 9.46295 33.4552 11.047 33.7494 11.589C34.0016 12.0475 34.7581 12.2977 34.8422 12.7979C35.0523 14.0068 32.9088 14.1319 31.9421 13.9651C31.3958 13.8818 26.6465 12.7145 27.9494 14.1736C27.9914 14.1319 30.1769 18.1755 35.9349 17.4251Z" fill="url(#paint5_linear)"/>
<path fill-rule="evenodd" clip-rule="evenodd" d="M58.3366 11.9225C57.8322 10.6719 56.9076 13.4649 55.8568 12.7562C56.109 12.3393 56.4452 11.5473 55.8148 11.2972C55.3104 11.1304 55.0583 11.6307 54.722 12.0059C53.8394 12.923 53.167 13.2565 51.864 13.3398C50.8974 13.3815 48.6698 13.048 48.8379 14.1319C48.88 14.6321 50.5191 15.3408 50.5191 15.3408C51.1916 15.8827 52.6626 15.1741 53.4191 15.049C54.5539 14.8406 55.8148 14.5904 56.7394 13.9651C57.2018 13.715 58.6308 12.6728 58.3366 11.9225Z" fill="url(#paint6_linear)"/>
<path fill-rule="evenodd" clip-rule="evenodd" d="M69.2221 37.5599C68.8438 37.1847 61.5728 29.9729 60.2699 28.6806C60.0597 28.4721 59.7655 28.4305 59.5554 28.6806C59.2192 29.0141 51.2756 36.8929 50.5611 37.6016C50.4351 37.7683 50.393 37.9351 50.4771 38.1435C50.5611 38.3519 50.7293 38.4353 50.9394 38.4353C51.3177 38.4353 52.3684 38.4353 52.5365 38.4353C52.7467 38.4353 52.8727 38.5604 52.9988 38.7271C53.0409 38.7688 53.0409 38.8522 53.0409 38.8939C53.0409 39.4358 53.0409 41.8953 53.0409 41.937C52.9988 42.0621 53.0409 42.1454 53.167 42.2288C54.1336 43.0209 55.1423 43.6462 56.2771 44.1464C57.2438 44.5633 58.2525 44.8551 59.2612 45.0635C60.0597 45.2303 60.9003 45.3136 61.6989 45.3136C61.7409 45.3136 61.7409 45.3136 61.7829 45.3136C63.4221 45.3553 64.6409 47.8149 66.196 47.3146C66.3641 47.2729 66.4902 47.1062 66.7844 46.9394C66.7844 46.8561 66.7844 39.144 66.7844 38.9772C66.7844 38.6021 66.9525 38.4353 67.3308 38.4353C67.8351 38.4353 68.3395 38.4353 68.8439 38.4353C69.054 38.4353 69.2641 38.3519 69.3482 38.1435C69.4323 37.8934 69.3902 37.7266 69.2221 37.5599Z" fill="url(#paint7_linear)"/>
<path d="M42.1973 69.2836C41.5669 68.7417 40.9785 68.2414 40.348 67.7829C40.0118 67.4911 39.6335 67.241 39.2973 66.9908C38.3306 66.2405 37.3219 65.5735 36.3553 64.9065C16.3914 51.7751 0 60.2793 0 60.2793C58.7989 115.806 82.8396 64.1978 82.8396 64.1978C60.9423 85.9167 42.1973 69.2836 42.1973 69.2836Z" fill="url(#paint8_linear)"/>
<path d="M50.351 58.1115C38.4567 50.7746 31.7741 47.5647 25.89 47.2312C22.0233 47.0228 18.4928 48.065 14.0798 50.0659C10.087 51.8168 0 60.2792 0 60.2792C0 60.2792 16.3914 51.7751 36.3553 64.9065C37.3219 65.5318 38.2886 66.2405 39.2973 66.9908C39.6335 67.2409 40.0118 67.5328 40.348 67.7829C41.4828 68.3248 42.5756 68.7834 43.6263 69.1585C45.6857 69.9923 47.8292 70.5759 50.0568 70.9511C67.2887 74.0359 76.7033 61.5298 77.4178 60.5294C77.4598 60.4877 77.4598 60.4877 77.4598 60.4877C63.8844 67.4494 50.351 58.1115 50.351 58.1115Z" fill="url(#paint9_linear)"/>
<path d="M77.5018 60.4877C77.5018 60.4877 77.5018 60.4877 77.4598 60.5294C78.8467 58.8202 80.0656 56.9443 81.0323 54.9016C78.1323 52.0669 74.896 49.6491 71.3656 47.6481C65.1032 44.1047 57.9162 41.937 50.2249 41.6452C49.5524 41.6035 48.8799 41.6035 48.2495 41.6035C40.1799 41.6035 32.5726 43.6462 25.932 47.2312C31.8161 47.5647 38.4987 50.7746 50.393 58.1115C50.351 58.1115 63.8844 67.4494 77.5018 60.4877Z" fill="url(#paint10_linear)"/>
<path d="M71.2395 20.635C71.2395 22.5943 69.6424 24.1784 67.667 24.1784C65.6917 24.1784 64.0945 22.5943 64.0945 20.635C64.0945 18.6757 65.6917 17.0916 67.667 17.0916C69.6424 17.0916 71.2395 18.6757 71.2395 20.635Z" fill="white"/>
<path d="M100.786 28.8493L106.502 37.6453H107.09V28.8493H110.747V37.6453H111.377L117.093 28.8493H121.464L114.277 38.1455C117.261 38.4373 118.606 40.48 119.531 43.273C120.246 45.3156 120.708 47.4417 121.632 49.401H117.808C117.135 48.0253 116.715 46.1911 116.253 44.732C115.454 42.2725 114.445 40.4383 111.545 40.4383H110.747V49.401H107.09V40.4383H106.25C103.35 40.4383 102.383 42.2725 101.543 44.732C101.08 46.1911 100.66 48.0253 99.9874 49.401H96.1628C97.0454 47.4417 97.5918 45.3156 98.2642 43.398C99.2309 40.6467 100.534 38.6457 103.518 38.1872L96.3309 28.891H100.786V28.8493Z" fill="white"/>
<path d="M135.544 40.2695H127.769V46.2724H136.469V49.3573H123.986V28.8473H136.006V31.9321H127.769V37.2264H135.544V40.2695Z" fill="white"/>
<path d="M157.231 40.9782C157.105 38.3519 156.937 35.142 156.979 32.349H156.895C156.223 34.8502 155.382 37.6016 154.457 40.1861L151.431 49.0654H148.531L145.757 40.3112C144.959 37.6849 144.244 34.8919 143.656 32.349H143.614C143.53 35.017 143.404 38.2686 143.236 41.0616L142.773 49.3156H139.243L140.63 28.8056H145.589L148.279 37.0596C148.994 39.4775 149.666 41.8953 150.17 44.1881H150.254C150.801 41.9787 151.515 39.4358 152.314 37.0596L155.172 28.8473H160.089L161.266 49.3573H157.61L157.231 40.9782Z" fill="white"/>
<path d="M168.159 28.8473V35.017C168.159 37.5599 169.504 38.8939 172.025 38.8939C173.244 38.8939 174.589 38.5187 175.514 37.9351V28.8473H179.297V49.3573H175.556V40.7698H175.472C174.001 41.5618 172.488 41.937 170.681 41.937C167.402 41.937 164.376 40.3112 164.376 35.684V28.8473H168.159Z" fill="white"/>
<path d="M185.811 28.8473L189.299 36.7678C189.846 38.1018 190.266 39.3107 190.771 40.5613H190.855C191.149 39.6025 191.527 38.3102 192.031 36.6845L194.721 28.8473H198.714L194.637 39.0606C193.418 42.0621 192.115 45.1469 190.644 47.0645C189.299 48.732 187.66 49.6908 185.475 49.6908C184.592 49.6908 184.046 49.6074 183.541 49.399L183.836 46.3975C184.13 46.4809 184.55 46.5226 185.139 46.5226C186.904 46.5226 187.997 45.0635 188.501 43.8963C188.669 43.4794 188.627 43.1876 188.417 42.8124L181.524 28.8473H185.811Z" fill="white"/>
<path d="M203.884 28.8473L209.6 37.6432H210.188V28.8473H213.845V37.6432H214.433L220.149 28.8473H224.52L217.333 38.1435C220.359 38.4353 221.662 40.478 222.587 43.271C223.301 45.3136 223.805 47.4397 224.688 49.3989H220.863C220.191 48.0233 219.771 46.1891 219.308 44.73C218.51 42.2705 217.501 40.4363 214.601 40.4363H213.803V49.3989H210.146V40.4363H209.305C206.447 40.4363 205.439 42.2705 204.598 44.73C204.136 46.1891 203.716 48.0233 203.085 49.3989H199.26C200.143 47.4397 200.689 45.3136 201.362 43.396C202.329 40.6447 203.631 38.6437 206.616 38.1852L199.429 28.889H203.884V28.8473Z" fill="white"/>
<path d="M230.572 28.8473V36.1008C230.572 39.3524 230.488 42.3539 230.32 45.1052L230.362 45.1469C231.413 42.8124 232.8 40.3529 234.145 38.0601L239.608 28.889H243.433V49.3989H239.945V42.1037C239.945 38.8939 239.987 36.2676 240.239 33.5996H240.197C239.23 35.9341 237.843 38.5187 236.498 40.6864L231.287 49.3573H227.084V28.8473H230.572Z" fill="white"/>
<path d="M251.545 28.8473V37.0596H260.287V28.8473H264.069V49.3573H260.287V40.3112H251.545V49.3573H247.762V28.8473H251.545Z" fill="white"/>
<path d="M272.517 43.5628L270.752 49.3573H266.843L273.484 28.8473H278.317L285.042 49.3573H281.007L279.116 43.5628H272.517ZM278.443 40.7281L276.804 35.684C276.384 34.4334 276.048 33.0577 275.754 31.8488H275.712C275.417 33.0577 275.081 34.475 274.745 35.684L273.148 40.7281H278.443Z" fill="white"/>
<path d="M180.978 60.2375H181.776C182.659 60.2375 183.163 59.8624 183.163 59.4038C183.163 58.9453 182.743 58.6118 181.986 58.6118C181.44 58.6118 180.852 58.7785 180.389 59.0703L180.053 58.1115C180.768 57.6946 181.65 57.4862 182.449 57.4862C183.542 57.4862 184.844 57.9031 184.844 59.1954C184.844 60.0291 184.088 60.4877 183.415 60.6544V60.6961C184.256 60.7795 185.139 61.2797 185.139 62.2385C185.139 63.7392 183.457 64.1978 182.155 64.1978C181.314 64.1978 180.473 63.9894 179.843 63.6142L180.221 62.572C180.684 62.8221 181.356 62.9889 181.986 62.9889C182.869 62.9889 183.373 62.6137 183.373 62.1135C183.373 61.4465 182.659 61.238 181.734 61.238H180.936V60.2375H180.978Z" fill="white"/>
<path d="M190.35 64.0728L190.224 63.3641H190.182C189.804 63.8643 189.131 64.1978 188.291 64.1978C186.988 64.1978 186.273 63.2807 186.273 62.2802C186.273 60.6544 187.702 59.8624 190.098 59.8624V59.7373C190.098 59.3205 189.93 58.6118 188.795 58.6118C188.165 58.6118 187.492 58.8202 187.072 59.0703L186.736 58.0282C187.198 57.7364 188.039 57.4445 189.047 57.4445C191.107 57.4445 191.695 58.7368 191.695 60.1125V62.4053C191.695 62.9889 191.737 63.5308 191.779 63.9477H190.35V64.0728ZM190.14 60.9462C189.005 60.9046 187.913 61.1547 187.913 62.1552C187.913 62.7805 188.333 63.0723 188.837 63.0723C189.468 63.0723 189.972 62.6554 190.098 62.1969C190.14 62.0718 190.14 61.9467 190.14 61.8634V60.9462Z" fill="white"/>
<path d="M197.873 57.6946V58.9869H195.226V64.1144H193.586V57.7363H197.873V57.6946Z" fill="white"/>
<path d="M205.018 60.8212C205.018 63.1556 203.337 64.1978 201.698 64.1978C199.891 64.1978 198.462 62.9472 198.462 60.9046C198.462 58.8202 199.849 57.5279 201.782 57.5279C203.758 57.5279 205.018 58.8619 205.018 60.8212ZM200.185 60.8629C200.185 62.1135 200.816 63.0306 201.782 63.0306C202.707 63.0306 203.337 62.1135 203.337 60.8212C203.337 59.8207 202.875 58.6952 201.782 58.6952C200.647 58.6952 200.185 59.8207 200.185 60.8629Z" fill="white"/>
<path d="M206.574 59.779C206.574 58.9453 206.531 58.2366 206.531 57.653H207.96L208.045 58.6535H208.087C208.549 57.9448 209.305 57.5279 210.272 57.5279C211.743 57.5279 212.962 58.7785 212.962 60.7795C212.962 63.0723 211.491 64.1978 210.02 64.1978C209.221 64.1978 208.549 63.8643 208.213 63.3641H208.171V66.6573H206.531V59.779H206.574ZM208.171 61.4048C208.171 61.5716 208.171 61.6966 208.213 61.8634C208.381 62.5303 208.969 62.9889 209.642 62.9889C210.692 62.9889 211.281 62.1135 211.281 60.8629C211.281 59.7373 210.734 58.8202 209.684 58.8202C209.011 58.8202 208.381 59.3205 208.213 60.0291C208.171 60.1542 208.129 60.3209 208.129 60.446V61.4048H208.171Z" fill="white"/>
<path d="M220.611 60.8212C220.611 63.1556 218.93 64.1978 217.291 64.1978C215.484 64.1978 214.055 62.9472 214.055 60.9046C214.055 58.8202 215.442 57.5279 217.375 57.5279C219.308 57.5279 220.611 58.8619 220.611 60.8212ZM215.736 60.8629C215.736 62.1135 216.324 63.0306 217.333 63.0306C218.258 63.0306 218.888 62.1135 218.888 60.8212C218.888 59.8207 218.426 58.6952 217.333 58.6952C216.198 58.6952 215.736 59.8207 215.736 60.8629Z" fill="white"/>
<path d="M227.504 57.6947V62.9055L228.177 62.9472L228.092 66.1154H226.832L226.748 64.0728H222.503L222.419 66.1154H221.158L221.116 62.9472L221.704 62.9055C221.956 62.4887 222.208 62.0718 222.334 61.5715C222.545 60.8212 222.671 60.0708 222.671 59.2788V57.653H227.504V57.6947ZM224.184 59.7373C224.184 60.4043 224.1 61.113 223.89 61.7383C223.805 62.1552 223.595 62.5303 223.427 62.8638H225.949V58.8619H224.184V59.7373Z" fill="white"/>
<path d="M231.203 57.6946V60.1542H233.682V57.6946H235.321V64.0727H233.682V61.4048H231.203V64.0727H229.563V57.6946H231.203Z" fill="white"/>
<path d="M238.852 57.6947V59.6956C239.104 59.654 239.44 59.6123 239.903 59.6123C241.332 59.6123 242.761 60.1959 242.761 61.8217C242.761 62.572 242.424 63.0723 241.962 63.4058C241.206 63.9894 240.113 64.1144 239.188 64.1144C238.516 64.1144 237.801 64.0728 237.213 64.0311V57.653H238.852V57.6947ZM238.852 62.9889C239.062 63.0306 239.272 63.0306 239.566 63.0306C240.323 63.0306 241.122 62.7388 241.122 61.8634C241.122 61.0296 240.323 60.7378 239.608 60.7378C239.272 60.7378 239.062 60.7795 238.852 60.8212V62.9889ZM245.114 57.6947V64.0728H243.475V57.6947H245.114Z" fill="white"/>
<path d="M248.561 57.6947V59.9874C248.561 60.9879 248.519 61.6966 248.477 62.572H248.519C248.855 61.8217 249.065 61.3631 249.401 60.6961L250.998 57.6947H252.974V64.0727H251.419V61.78C251.419 60.7378 251.461 60.2792 251.503 59.0703H251.461C251.166 59.8207 250.914 60.2792 250.62 60.9045C250.116 61.8633 249.527 62.9889 248.981 64.0311H247.048V57.653H248.561V57.6947ZM249.233 55.0684C249.275 55.652 249.485 56.0272 249.948 56.0272C250.41 56.0272 250.662 55.652 250.704 55.0684H251.797C251.713 56.1939 250.998 56.8192 249.948 56.8192C248.771 56.8192 248.224 56.1106 248.182 55.0684H249.233Z" fill="white"/>
<path d="M259.404 57.6947V60.3626H259.656L261.632 57.6947H263.565L261.001 60.4877C261.884 60.6128 262.43 61.3214 262.851 62.3219C263.061 62.7805 263.271 63.4891 263.565 64.0728H261.884C261.716 63.7809 261.548 63.3224 261.296 62.6971C260.959 61.8217 260.455 61.4048 259.614 61.4048H259.404V64.0311H257.765V57.653H259.404V57.6947Z" fill="white"/>
<path d="M270.248 57.6946V64.0727H268.609V58.9452H266.885V60.3209C266.885 61.9884 266.717 63.1139 265.919 63.6976C265.541 64.031 265.078 64.2395 264.28 64.2395L264.112 62.9889C264.406 62.9472 264.658 62.8221 264.784 62.6554C265.246 62.2802 265.33 61.5298 265.33 60.2792V57.6946H270.248Z" fill="white"/>
<path d="M273.148 57.6946L274.325 61.113C274.451 61.4882 274.577 61.9884 274.703 62.3636H274.745C274.871 61.9884 274.955 61.5298 275.081 61.113L276.09 57.6946H277.855L276.258 62.0301C275.375 64.4062 274.787 65.4901 273.988 66.1154C273.358 66.699 272.685 66.9074 272.307 66.9491L271.929 65.5735C272.223 65.5318 272.559 65.365 272.896 65.1149C273.19 64.9065 273.568 64.5313 273.778 64.1144C273.82 63.9894 273.904 63.906 273.904 63.8226C273.904 63.7392 273.904 63.6559 273.82 63.4891L271.467 57.6113H273.148V57.6946Z" fill="white"/>
<path d="M284.243 55.9021C283.907 56.0272 283.277 56.1106 282.814 56.1522C281.848 56.2773 281.133 56.5691 280.671 57.1527C280.293 57.653 279.999 58.4033 279.956 58.987H279.999C280.419 58.1949 281.259 57.6947 282.184 57.6947C283.865 57.6947 285 58.9036 285 60.8629C285 62.9472 283.739 64.2395 281.848 64.2395C279.578 64.2395 278.654 62.2802 278.654 59.9874C278.654 58.445 279.032 57.1527 279.872 56.2773C280.503 55.4853 281.385 55.1101 282.604 54.9433C283.193 54.86 283.907 54.7766 284.37 54.6515L284.243 55.9021ZM281.806 58.8202C281.259 58.8202 280.881 59.112 280.629 59.4872C280.419 59.8624 280.293 60.2792 280.293 60.7795C280.293 61.7383 280.713 63.0306 281.806 63.0306C282.899 63.0306 283.319 61.9467 283.319 60.9045C283.361 59.9874 282.983 58.8202 281.806 58.8202Z" fill="white"/>
<defs>
<linearGradient id="paint0_linear" x1="20.1742" y1="37.3855" x2="86.1389" y2="37.3855" gradientUnits="userSpaceOnUse">
<stop stop-color="#FFF6B1"/>
<stop offset="0.1862" stop-color="#FFF2A1"/>
<stop offset="0.5496" stop-color="#FFE778"/>
<stop offset="1" stop-color="#FFD73C"/>
</linearGradient>
<linearGradient id="paint1_linear" x1="31.2751" y1="318.008" x2="31.2751" y2="-172.865" gradientUnits="userSpaceOnUse">
<stop stop-color="#74C9C2"/>
<stop offset="0.2448" stop-color="#57C1BA"/>
<stop offset="1" stop-color="#00A9A2"/>
</linearGradient>
<linearGradient id="paint2_linear" x1="30.6858" y1="136.098" x2="30.6858" y2="-68.6356" gradientUnits="userSpaceOnUse">
<stop stop-color="#74C9C2"/>
<stop offset="0.2448" stop-color="#57C1BA"/>
<stop offset="1" stop-color="#00A9A2"/>
</linearGradient>
<linearGradient id="paint3_linear" x1="21.5407" y1="52.4042" x2="21.5407" y2="2.25821" gradientUnits="userSpaceOnUse">
<stop stop-color="#74C9C2"/>
<stop offset="0.2448" stop-color="#57C1BA"/>
<stop offset="1" stop-color="#00A9A2"/>
</linearGradient>
<linearGradient id="paint4_linear" x1="25.1858" y1="36.1842" x2="56.0087" y2="36.1842" gradientUnits="userSpaceOnUse">
<stop stop-color="#00797E"/>
<stop offset="1" stop-color="#00A9A2"/>
</linearGradient>
<linearGradient id="paint5_linear" x1="27.748" y1="8.76436" x2="55.022" y2="8.76436" gradientUnits="userSpaceOnUse">
<stop stop-color="#00797E"/>
<stop offset="1" stop-color="#00A9A2"/>
</linearGradient>
<linearGradient id="paint6_linear" x1="48.8226" y1="13.4358" x2="58.3803" y2="13.4358" gradientUnits="userSpaceOnUse">
<stop stop-color="#00797E"/>
<stop offset="1" stop-color="#00A9A2"/>
</linearGradient>
<linearGradient id="paint7_linear" x1="59.8997" y1="47.3749" x2="59.8997" y2="28.497" gradientUnits="userSpaceOnUse">
<stop offset="0.0107527" stop-color="#00A9A2"/>
<stop offset="0.2752" stop-color="#22B2AB"/>
<stop offset="0.7651" stop-color="#5DC3BC"/>
<stop offset="1" stop-color="#74C9C2"/>
</linearGradient>
<linearGradient id="paint8_linear" x1="0" y1="71.7916" x2="82.8408" y2="71.7916" gradientUnits="userSpaceOnUse">
<stop offset="0.0107527" stop-color="#00A9A2"/>
<stop offset="0.2752" stop-color="#22B2AB"/>
<stop offset="0.7651" stop-color="#5DC3BC"/>
<stop offset="1" stop-color="#74C9C2"/>
</linearGradient>
<linearGradient id="paint9_linear" x1="38.7418" y1="47.1935" x2="38.7418" y2="71.4457" gradientUnits="userSpaceOnUse">
<stop stop-color="#FFF6B1"/>
<stop offset="0.1862" stop-color="#FFF2A1"/>
<stop offset="0.5496" stop-color="#FFE778"/>
<stop offset="1" stop-color="#FFD73C"/>
</linearGradient>
<linearGradient id="paint10_linear" x1="37.7335" y1="35.4716" x2="69.9593" y2="67.9621" gradientUnits="userSpaceOnUse">
<stop stop-color="#00A9A2"/>
<stop offset="0.2734" stop-color="#00A29D"/>
<stop offset="0.6764" stop-color="#008E8E"/>
<stop offset="1" stop-color="#00797E"/>
</linearGradient>
</defs>
</svg>
